<svg xmlns="http://www.w3.org/2000/svg" viewBox="0 0 45.82 97.15">
  <title>Asset 1</title>
  <g id="Layer_2" data-name="Layer 2">
    <g id="Layer_1-2" data-name="Layer 1">
      <path d="M40.56,67.42c.86-3.35,4-6.74,5.26-7.27,0,0-6.93-.22-10,4.68-3,4.64-5.52,7.39-7.61,7.62a32.23,32.23,0,0,1-1.45-4.15l.21,0c4.89.68,7.3-5.53,8.92-9.72a11.11,11.11,0,0,1,5-5.3s-5.82-.81-8.86,2.8c-2.66,3.17-4.9,5.07-6.63,5.34-.2-1.64-.34-3.31-.41-5l.16.07c4,1.31,6.83-3.22,8.75-6.26a9,9,0,0,1,4.91-3.4s-4.73-1.55-7.75.82c-2.57,2-4.65,3.15-6.12,3.15,0-1.65.13-3.28.25-4.89l.26.13c3.29,1.33,5.87-2.11,7.61-4.42a7.23,7.23,0,0,1,4.26-2.38s-3.91-1.58-6.54.11c-2.19,1.41-3.95,2.17-5.18,2.11.14-1.3.3-2.56.47-3.78l.12.05c2.88.88,4.74-2,6-4a5.87,5.87,0,0,1,3.37-2.15s-3.42-1-5.48.46A11.29,11.29,0,0,1,26.62,34c.2-1.2.4-2.33.59-3.38h0c2.52.39,3.7-2.11,4.5-3.8a4.78,4.78,0,0,1,2.54-2.07s-3-.47-4.53.95a11.89,11.89,0,0,1-1.88,1.48c.42-2.1.72-3.57.77-4.15s.08-.91.11-1.36c1.91-.2,2.54-2.16,3-3.52a4,4,0,0,1,1.86-1.95s-2.56,0-3.66,1.31a12.19,12.19,0,0,1-1.08,1.14,36,36,0,0,0-.45-5.49c1.56-.2,2.1-1.74,2.45-2.81a3.28,3.28,0,0,1,1.58-1.56s-2.18,0-3.11,1.05A7,7,0,0,1,28,11.07C26.15,3.41,22,.48,21.58,0c0,0,2.93,6.7,3.46,11.64a7.59,7.59,0,0,1-1.37-1.26c-.92-1-3.1-1-3.1-1a3.25,3.25,0,0,1,1.58,1.55c.38,1.15,1,2.85,2.78,2.85h.21a35.26,35.26,0,0,1-.36,4.87,9.28,9.28,0,0,1-1.56-1.54c-1.1-1.31-3.67-1.31-3.67-1.31a3.94,3.94,0,0,1,1.87,1.95c.43,1.36,1.07,3.32,3,3.52a.52.52,0,0,0,0,.11c-.06.35-.11.69-.17,1-.16,1-.35,2.12-.55,3.24A9,9,0,0,1,21,23.7c-1.53-1.43-4.53-1-4.53-1A4.75,4.75,0,0,1,19,24.81c.75,1.59,1.85,3.91,4.08,3.84-.25,1.19-.52,2.4-.83,3.61-1,0-2.44-.74-4.15-2-2.06-1.51-5.48-.46-5.48-.46A5.9,5.9,0,0,1,16,32c1.14,1.78,2.79,4.33,5.24,4.12-.36,1.34-.72,2.69-1.07,4.06-1.23,0-3-.71-5.17-2.11-2.63-1.7-6.54-.11-6.54-.11a7.23,7.23,0,0,1,4.26,2.38c1.5,2,3.63,4.83,6.31,4.7-.36,1.69-.68,3.41-.93,5.15-1.47,0-3.57-1.1-6.18-3.15-3-2.37-7.75-.82-7.75-.82a9,9,0,0,1,4.91,3.4c1.87,3,4.64,7.32,8.46,6.33-.1,1.68-.14,3.34-.13,5a20.64,20.64,0,0,1-5.7-4.29c-3.39-3.29-9.1-1.9-9.1-1.9a11.1,11.1,0,0,1,5.55,4.77c2,4,5,9.89,9.8,8.78.2,1.3.46,2.58.78,3.83a26.58,26.58,0,0,1-7.63-3.41c-5-3-11.08.37-11.08.37,1.32-.07,5.7,1.51,8,4.11,3.65,4.15,9,10.27,14.09,7.73,2.58,5.77,5.37,11.87,4.29,16.15-.9.9,11.18-4.14,14.43-3.81,2.28.24-3.21-6.56-7.69-12.78C37.55,79.11,39.33,72.23,40.56,67.42Z"/>
    </g>
  </g>
</svg>
