<?xml version="1.0" encoding="utf-8"?>
<!-- Generator: Adobe Illustrator 23.0.4, SVG Export Plug-In . SVG Version: 6.00 Build 0)  -->
<svg version="1.1" id="Layer_1" xmlns="http://www.w3.org/2000/svg" xmlns:xlink="http://www.w3.org/1999/xlink" x="0px" y="0px"
	 viewBox="0 0 383.61 110.59" style="enable-background:new 0 0 383.61 110.59;" xml:space="preserve">
<g>
	<path d="M40.2,35.72c-1.15,4.5-2.28,8.52-3.44,12.24c34.95,9.9,57.38,12.54,70.29,9c6.36-1.74,8.04-5.22,8.04-5.22
		c3.18,2.52,3.23,10.38-4.73,12.78c-16.06,4.86-41.62-1.08-75.04-12.24c-3.45,9.84-7.47,16.68-13.83,21.84
		C6.18,86.36-3.8,73.7,1.38,60.5c4.9-12.54,17.34-16.26,29.19-14.16c1.82-6.24,3.3-12.9,4.52-19.14c2.05-10.5,4.01-16.14,7.33-19.08
		c3.6-3.36,8.98-2.28,8.13,0.36c-0.12,0-2.81-2.7-7.55,16.2c-0.67,2.64-1.32,5.16-1.91,7.56c10.11-0.48,17.05-7.08,19.64-14.88
		c3.05-9.24-5.03-13.08-13.54-13.08c-11.58,0-21.76,6.6-25.09,14.76c-3.48,8.58,3.08,12.6,7.53,10.8c0,0,1.01,7.86-5.64,7.74
		c-6.47-0.12-13.07-6.96-7.36-18.3c5.77-11.28,19.8-18.84,33.5-19.26c11.78-0.3,22.19,4.38,18.68,15.96
		C65.15,28.04,52.85,34.88,40.2,35.72z M29.28,50.3c-11.5-2.94-19.66,1.38-22.83,10.68C2.59,72.44,9.85,77.54,16.99,71.6
		C22.28,67.16,26.25,59.24,29.28,50.3z"/>
	<path d="M68.26,43.51c0.54,1.87,1.6,3.22,3.35,3.6c3.98,0.82,7.96-3.36,9.29-6.48c0,0,0.05,0,0.1,0c0.89-0.34,1.61,0.34,0.93,1.82
		c-1.98,4.22-7.29,8.78-13.43,7.39C64,48.83,60.5,44.61,62.08,36.4c1.47-8.01,7.81-13.53,14.11-12.38
		c8.48,1.63,4.08,10.94-7.44,19.15L68.26,43.51z M67.9,41.06c5.76-4.8,8.55-14.54,6.81-15.02c-2.21-0.62-5.4,5.18-6.29,9.65
		C68.01,37.51,67.83,39.38,67.9,41.06z"/>
	<path d="M90.89,21.86c1.85,0.34,3.61,0.53,5.21,0.29l0.63-0.1c2.09,0.96,1.73,3.36-1.48,3.98c-1.41,0.29-3.5,0-5.88-0.43
		c-0.78,2.26-1.54,4.9-2.31,8.3c-1.1,4.7-2.01,12.29-0.71,12.81c1.4,0.53,3.64-2.64,5.13-6.05l0.05-0.05
		c0.88-0.29,1.61,0.38,0.92,1.87c-2.15,4.61-6.25,8.4-9.37,6.96c-2.98-1.34-3.2-9.12-2.03-15.55c0.57-3.36,1.3-6.86,2.21-9.69
		c-4.82-1.15-9.87-2.3-13.51-1.73c-5.14,0.77-6.94,3.17-6.94,3.17c-2.18-2.45-1.34-8.3,5.16-9.21c4.8-0.67,10.96,1.82,16.87,3.79
		c0.51-1.06,1.14-1.87,1.7-2.4c3.83-3.31,6.59-0.19,6.59-0.19S92.15,19.03,90.89,21.86z"/>
	<path d="M97.68,43.51c0.54,1.87,1.6,3.22,3.35,3.6c3.98,0.82,7.96-3.36,9.29-6.48c0,0,0.05,0,0.1,0c0.89-0.34,1.61,0.34,0.93,1.82
		c-1.98,4.22-7.29,8.78-13.43,7.39c-4.49-1.01-7.99-5.23-6.41-13.44c1.47-8.01,7.81-13.53,14.11-12.38
		c8.48,1.63,4.08,10.94-7.44,19.15L97.68,43.51z M97.32,41.06c5.76-4.8,8.55-14.54,6.81-15.02c-2.21-0.62-5.4,5.18-6.29,9.65
		C97.43,37.51,97.25,39.38,97.32,41.06z"/>
	<path d="M121.43,47.1c1.51,0.34,4.15-3.02,5.64-6.48h0.1c0.84-0.29,1.61,0.34,0.92,1.87c-2.19,4.61-6.1,8.35-9.78,7.39
		c-3.58-0.96-4.17-7.01-0.59-15.6l-0.44,0.1c-0.82,0.1-1.54,0.05-2.15-0.1c-1.02,2.98-2.5,6.24-4.29,9.21
		c-0.87,1.44-1.96,1.2-2.18,0.34c-0.04-0.05-0.04-0.1-0.04-0.1c1.87-2.69,3.48-7.15,4.3-10.7c-1.62-1.54-1.82-4.13-0.56-5.71
		c0.15-0.14,0.35-0.14,0.35-0.14s1.58,2.06,6.07,1.73c7.48-0.62,7.68,0,5.86,4.08C120.64,41.87,120.01,46.82,121.43,47.1z"/>
	<path d="M157.96,29.06c1.66,6.3,3.35,16.44,5.74,16.62c2.32,0.24,6.36-3.42,8.15-7.62h0.12c1.11-0.42,2.02,0.36,1.1,2.28
		c-2.69,5.88-8.5,9.96-12.54,9.42c-4.34-0.54-7.63-10.98-9.78-18.9c-1.03,0.12-2,0.24-2.96,0.3c-0.29,1.56-0.58,3.18-0.83,5.04
		c-2.21,13.56-8.25,17.64-11.74,14.34c0,0,0.91-0.96,1.65-2.94c5.89-14.7,5.71-33.66,10.27-38.76c4.69-5.28,9.83-1.62,9.66,0.84
		c0,0-4.45,0.18-8.35,18.12c8.6-0.3,16.18-6.54,18.15-12.42c2.46-7.68-3.36-11.1-11.58-11.1c-12.42,0-19.93,6.18-22.47,12.42
		c-2.53,6.12,2.67,9.06,6.56,7.44c0,0,1.07,7.86-5.64,7.8c-6.23-0.12-10.78-6.3-6.4-14.94c4.74-9.42,16.57-16.5,30.82-16.92
		c11.48-0.36,19.82,4.02,16.79,13.86C172.49,21.13,165.71,26.36,157.96,29.06z"/>
	<path d="M180.34,45.09c0.94-0.34,1.61,0.34,0.93,1.82c-2.08,4.42-5.4,8.59-9.78,7.39c-4.34-1.15-4.46-11.76-2.04-19.63
		c1.8-5.9,5.45-7.87,9.01-5.23c0,0-2.3,3.36-3.69,8.21c-1.46,5.04-2.38,13.39-0.15,13.87c2.22,0.53,4.25-3.17,5.68-6.43H180.34z
		 M176.56,26.95c-2.21-0.67-2.78-2.74-2.16-4.75c0.77-2.83,3.42-3.6,5.7-2.54c2.84,1.25,2.77,2.98,1.32,5.14
		C180.24,26.52,178.17,27.38,176.56,26.95z"/>
	<path d="M186.82,35.39c-1.05,5.38-0.83,10.51,1.13,11.28c1.4,0.58,3.64-2.59,5.08-6.05h0.1c0.89-0.34,1.61,0.34,0.88,1.87
		c-2.09,4.56-6.2,8.35-9.32,6.96c-3.86-1.78-4.6-7.73-3.18-15.6c2.38-12.77,11.13-31.53,17.26-29.23
		C203.02,6.26,197.75,20.52,186.82,35.39z M188.11,30.02c6.61-10.03,10.31-19.1,8.96-20.4C195.45,8.09,190.93,19.84,188.11,30.02z"
		/>
	<path d="M199.12,43.51c0.54,1.87,1.6,3.22,3.35,3.6c3.98,0.82,7.96-3.36,9.29-6.48c0,0,0.05,0,0.1,0c0.89-0.34,1.61,0.34,0.93,1.82
		c-1.98,4.22-7.29,8.78-13.43,7.39c-4.49-1.01-7.99-5.23-6.41-13.44c1.47-8.01,7.81-13.53,14.11-12.38
		c8.48,1.63,4.08,10.94-7.44,19.15L199.12,43.51z M198.76,41.06c5.76-4.8,8.55-14.54,6.81-15.02c-2.21-0.62-5.4,5.18-6.29,9.65
		C198.87,37.51,198.69,39.38,198.76,41.06z"/>
	<path d="M217.03,45.47c1.41,0.43,3.75-2.11,5.68-7.82l0.91-4.13c1.45-7.05,5.87-7.68,8.41-4.9c0,0-1.99,1.68-3.58,9.41
		c-0.93,4.32-1.95,9.36-3.3,14.3c0.05,0,0.14,0,0.19,0c24.02,5.23,32.29,2.35,35.37,1.44c5.09-1.44,6.39-4.27,6.39-4.27
		c2.55,1.97,2.74,8.25-3.65,10.27c-6.68,2.11-15.73,1.87-39.26-4.18c-2.04,6.48-4.81,12.53-8.8,16.65
		c-10.34,10.65-19.44,1.3-16.3-7.82c3.19-9.17,11.56-12.96,20.29-12.81c0.59-2.3,1.21-4.9,1.88-7.63c-1.47,2.54-3.92,5.23-6.87,4.85
		c-3.86-0.48-4.5-5.04-2.48-11.18c2.38-7.29,1.7-9.21,1.7-9.21c6.48-2.06,7.01,1.3,4.5,8.49C216.25,42.21,215.8,45.14,217.03,45.47z
		 M218.5,54.54c-7.93-0.53-13.11,3.55-15.07,10.27c-2.33,7.87,2.08,11.42,6.62,6.91C213.62,68.17,216.17,62.46,218.5,54.54z"/>
	<path d="M273.47,20.66c-0.2,1.08-0.52,2.28-0.78,3.48c-4.07,15.36-13.25,28.14-24.4,27.24c-8.65-0.66-15.17-8.64-12.04-24.3
		c3.1-15.18,13.83-23.64,21.56-24.36c0.9,0,1.68,0,2.38,0.24c0.85-1.02,1.81-1.8,2.98-2.28c6.29-2.4,12.22,2.04,11.16,14.64
		c6.25-3.6,14.46-7.74,22.18-7.5c8.14,0.24,8.89,7.5,6.14,10.86c0,0-2.07-3.06-8.55-3.06c-4.92,0-11.87,1.56-18.17,4.2
		C275.12,20.18,274.32,20.41,273.47,20.66z M270.07,21.26c-5.12,0.3-9.16-2.04-10.97-5.28c-1.82-3.18-1.74-7.74-0.06-11.16
		c-0.48-0.06-1.01-0.12-1.5-0.06c-3.45,0.36-10.41,8.1-13.34,20.94c-3.03,13.32,1.54,20.04,7.63,20.4
		c7.53,0.48,14.73-9.9,17.61-21.9C269.69,23.18,269.88,22.22,270.07,21.26z M270.66,17.05c0.76-7.5-1.09-11.82-5.3-10.92
		c-2.55,0.48-4.45,5.34-3.4,8.22C263.07,17.47,266.17,18.68,270.66,17.05z"/>
	<path d="M270.13,32.56c-1.12-1.2-1.97-2.69-1.42-4.42c0.52-1.92,4.77-4.32,5.7-3.26c0.71,0.77,0.35,3.26-0.06,4.94
		c-0.05,0.1-0.06,0.19-0.06,0.19c0.27,0.24,0.6,0.38,0.97,0.58c3.05,1.73,6.83,4.7,7.25,8.93c2.06-0.62,3.76-1.63,4.68-3.79
		c0,0,0,0,0.1,0c0.89-0.34,1.61,0.34,0.88,1.82c-1.19,2.54-3.39,3.89-5.85,4.66l-0.01,0.1c-1.63,6.77-9.73,8.64-12.89,6.53
		c-2.38-1.68-0.74-5.23,3.07-6.86c1.09-0.43,2.17-0.77,3.19-1.06c0.3-2.88-1.14-5.04-2.97-6.33c-1.37,3.07-3.15,5.9-4.9,8.93
		c-0.82,1.44-1.82,1.3-2.05,0.43c-0.04-0.05-0.04-0.05-0.04-0.05C267.37,41.15,269.36,36.07,270.13,32.56z M275.08,43.46
		c-1.11,0.14-2.19,0.38-3.02,0.67c-1.72,0.58-2.14,2.5-1.12,3.02C272.04,47.73,273.83,46.87,275.08,43.46z"/>
	<path d="M291.5,33.14c1.29-2.59,3.54-5.28,6.64-5.66c4.02-0.48,5.98,3.7,3.93,10.37c-2.63,8.83-9.84,12.33-13.1,11.61
		c-2.89-0.62-4.8-3.41-4.57-7.49c0.49-7.68,3.17-22.03,6.34-26.11c3.38-4.32,7.34,0.77,7.34,0.77S294.52,20.76,291.5,33.14z
		 M290.01,40c-0.64,3.6-1.01,6.86,0.27,7.1c1.42,0.24,4.13-3.46,5.51-8.11c1.24-3.98,1.47-7.97-0.01-8.16
		C294.36,30.69,291.71,34.15,290.01,40z"/>
	<path d="M317.75,27c2.16-1.34,4.81-0.19,5.54,3.79c2.39,0.19,4.93,0.19,7.66-1.1c0,0,0.04,0.05,0.09,0.05
		c0.79,0.34,0.82,1.39-0.72,2.02c-1.78,0.77-4.36,1.3-6.87,1.44c-0.08,1.2-0.18,2.54-0.58,4.13c-1.22,5.81-6.41,13.39-12.84,12.72
		c-4.87-0.43-8.26-4.8-6.87-11.66c1.41-7.1,6.86-12.24,12.73-11.81C316.62,26.66,317.24,26.76,317.75,27z M309.54,37.27
		c-1.17,5.04-0.1,8.35,2.81,8.54c3.11,0.19,6.71-3.31,7.93-8.45c0.34-1.49,0.35-2.98,0.16-4.32c-0.48-0.05-0.86-0.1-1.28-0.19
		c-2.27-0.43-3.94-2.64-2.8-4.51c-0.33-0.1-0.61-0.14-0.95-0.19C313.07,28.05,310.73,31.99,309.54,37.27z"/>
	<path d="M336.65,47.1c1.51,0.34,4.15-3.02,5.64-6.48h0.1c0.84-0.29,1.61,0.34,0.92,1.87c-2.19,4.61-6.1,8.35-9.78,7.39
		c-3.58-0.96-4.17-7.01-0.59-15.6l-0.44,0.1c-0.82,0.1-1.54,0.05-2.15-0.1c-1.02,2.98-2.5,6.24-4.29,9.21
		c-0.87,1.44-1.96,1.2-2.18,0.34c-0.04-0.05-0.04-0.1-0.04-0.1c1.87-2.69,3.48-7.15,4.3-10.7c-1.62-1.54-1.82-4.13-0.56-5.71
		c0.15-0.14,0.35-0.14,0.35-0.14s1.58,2.06,6.07,1.73c7.48-0.62,7.68,0,5.86,4.08C335.86,41.87,335.23,46.82,336.65,47.1z"/>
	<path d="M345.84,26.85c3.37-2.11,6.11,1.15,6.11,1.15s-1.11,0.82-2.42,6.53c3.95-6.38,7.53-8.88,10.48-7.82
		c2.2,0.77,2.17,4.61,0.12,11.33c-2.36,7.68-3.39,12.09-2.27,12.53c1.08,0.38,2.41-0.77,3.61-3.55l0.05-0.05
		c0.89-0.34,1.61,0.34,0.98,1.82c-2.14,4.51-5.57,6.14-8.22,4.94c-2.61-1.15-3.19-5.9-0.27-14.73c1.94-5.71,2.03-7.68,1.04-8.06
		c-0.85-0.24-3.16,1.97-6.63,9.02c-1.74,9.12-3.28,10.46-6.69,9.12c0,0-0.15-0.62-0.03-2.26C342.43,35.73,342.67,28.87,345.84,26.85
		z"/>
	<path d="M369.68,43.51c0.54,1.87,1.6,3.22,3.35,3.6c3.98,0.82,7.96-3.36,9.29-6.48c0,0,0.05,0,0.1,0c0.89-0.34,1.61,0.34,0.93,1.82
		c-1.98,4.22-7.29,8.78-13.43,7.39c-4.49-1.01-7.99-5.23-6.4-13.44c1.47-8.01,7.81-13.53,14.11-12.38
		c8.48,1.63,4.08,10.94-7.44,19.15L369.68,43.51z M369.32,41.06c5.76-4.8,8.55-14.54,6.81-15.02c-2.21-0.62-5.4,5.18-6.29,9.65
		C369.43,37.51,369.25,39.38,369.32,41.06z"/>
</g>
<g>
	<path d="M158.07,101.92c-2.95,0-4.93-2.2-4.93-4.86c0-2.84,2.45-4.86,4.93-4.86c2.38,0,4.25,1.91,3.6,4.32h-6.23
		c-0.29,2.34,0.72,4.07,3.28,4.07c0.79,0,2.02-0.47,2.84-1.22l0.61,0.76C161.16,101.17,159.58,101.92,158.07,101.92z M158.07,93.46
		c-1.33,0-2.05,0.72-2.41,1.84h4.03C159.94,94.54,159.44,93.46,158.07,93.46z"/>
	<path d="M165.52,101.92c-1.73,0-2.66-1.87-2.66,0h-0.76v-4.03h0.76c0,1.22,0.94,2.95,2.7,2.95c0.79,0,1.37-0.54,1.37-1.37
		c0-0.61-0.68-0.97-1.37-1.33l-1.44-0.79c-1.33-0.72-1.8-1.84-1.8-2.7c0-1.48,1.33-2.45,2.74-2.45c1.87,0,2.23,1.37,2.23,0h0.79
		v3.24h-0.79c0-1.15-0.72-2.2-1.98-2.2c-0.79,0-1.19,0.4-1.19,1.12c0,0.58,0.54,0.83,1.48,1.33l1.26,0.68
		c1.19,0.68,1.87,1.66,1.87,2.63C168.72,100.77,167.25,101.92,165.52,101.92z"/>
	<path d="M172.25,101.92c-1.62,0-2.66-0.94-2.66-3.06v-5.08h-1.33v-0.86c1.58-0.36,2.12-1.4,2.3-3.13h1.12v2.81h2.23v1.19h-2.23
		v5.08c0,1.15,0.29,1.8,1.04,1.8c0.43,0,1.04-0.36,1.69-0.97l0.61,0.61C174.2,101.31,173.01,101.92,172.25,101.92z"/>
	<path d="M175.35,98.68c0-0.97,0.79-1.8,1.76-1.8c1.01,0,1.76,0.83,1.76,1.8c0,1.01-0.76,1.76-1.76,1.76
		C176.14,100.45,175.35,99.69,175.35,98.68z"/>
	<path d="M187.12,109.77v-0.76c2.41,0,2.84-0.61,2.84-4.21V99.3c0-3.6-0.83-3.96-3.42-3.89v-0.76l5.98-1.19v11.34
		c0,3.6,0.47,4.21,2.84,4.21v0.76H187.12z"/>
	<path d="M201.63,110.38c-2.99,0-4.93-2.2-3.64-3.02c1.08-0.68,1.33,1.66,3.6,1.66c2.59,0,3.67-3.31,3.92-6.55
		c-0.61,0.68-1.94,1.22-3.2,1.22c-2.99,0-5.72-2.27-5.72-5.04c0-2.81,2.48-5.08,5.47-5.08c2.05,0,6.01,1.3,6.01,7.45
		C208.07,105.52,205.73,110.38,201.63,110.38z M202.06,94.9c-2.09,0-2.95,2.02-2.95,3.74c0,1.69,1.12,3.64,3.2,3.64
		c1.44,0,2.99-0.72,3.28-1.69C205.51,96.78,203.82,94.9,202.06,94.9z"/>
	<path d="M220.78,95.16l-6.34,13.79c-0.54,1.15-0.97,1.87-2.02,1.58c-0.54-0.14-1.22-0.94-0.4-2.34l6.98-11.91h-5.8
		c-1.51,0-2.88,0.43-3.28,2.02l-0.18,0.72h-0.83l0.86-4.82h10.98V95.16z"/>
	<path d="M226.57,110.38c-3.38,0-5.18-1.98-5.18-3.17c0-0.47,0.32-0.86,1.01-0.86c1.26,0,0.76,2.52,4.18,2.52
		c2.52,0,3.92-1.87,3.92-4.07c0-2.27-1.15-4.14-3.64-4.14c-1.48,0-3.06,0.9-3.46,2.63h-1.44l0.94-9.11h9.32l-0.36,2.09h-7.74
		l-0.4,4.14c0.83-0.76,2.2-1.22,3.46-1.22c3.42,0,5.87,2.52,5.87,5.62C233.05,107.86,230.14,110.38,226.57,110.38z"/>
</g>
</svg>
